{"title":"Arthur [2011] DVDRip","uid":6498235,"size":838875182,"categoryP":"video","categoryS":"movies","magnet":"?xt=urn:btih:a3a4cb744dfe44176ebc25c05bbe51db0c1db43c&amp;dn=Arthur+%5B2011%5D+DVDRip&amp;tr=udp%3A%2F%2Ftracker.openbittorrent.com%3A80&amp;tr=udp%3A%2F%2Fopen.demonii.com%3A1337&amp;tr=udp%3A%2F%2Ftracker.coppersurfer.tk%3A6969&amp;tr=udp%3A%2F%2Fexodus.desync.com%3A6969","seeders":1,"leechers":1,"uploader":"RetroidPrime91","files":2,"time":1309157416,"description":"A drunken playboy stands to lose a wealthy inheritance when he falls for a woman his family doesn't like.\n\n\nFormat : AVI\nFormat/Info : Audio Video Interleave\nFile size : 800 MiB\nDuration : 1h 50mn\nOverall bit rate : 1 016 Kbps\nWriting application : VirtualDubMod 1.5.4.1 (build 2178/release)\nWriting library : VirtualDubMod build 2178/release\n\nVideo\n\nFormat : MPEG-4 Visual\nFormat profile : Advanced Simple@L5\nFormat settings, BVOP : Yes\nFormat settings, QPel : No\nFormat settings, GMC : No warppoints\nFormat settings, Matrix : Custom\nCodec ID : XVID\nCodec ID/Hint : XviD\nDuration : 1h 50mn\nBit rate : 849 Kbps\nWidth : 640 pixels\nHeight : 352 pixels\nDisplay aspect ratio : 16:9\nFrame rate : 23.976 fps\nColor space : YUV\nChroma subsampling : 4:2:0\nBit depth : 8 bits\nScan type : Progressive\nCompression mode : Lossy\nBits/(Pixel*Frame) : 0.157\nStream size : 669 MiB (84%)\nWriting library : XviD 1.2.1 (UTC 2008-12-04)\n\nAudio\n\nFormat : MPEG Audio\nFormat version : Version 1\nFormat profile : Layer 3\nMode : Joint stereo\nMode extension : MS Stereo\nCodec ID : 55\nCodec ID/Hint : MP3\nDuration : 1h 50mn\nBit rate mode : Constant\nBit rate : 160 Kbps\nChannel(s) : 2 channels\nSampling rate : 48.0 KHz\nCompression mode : Lossy\nStream size : 126 MiB (16%)\nAlignment : Aligned on interleaves\nInterleave, duration : 83 ms (2.00 video frames)\nInterleave, preload duration : 504 ms\nWriting library : LAME3.98r\nEncoding settings : -m j -V 4 -q 2 -lowpass 17.5 -b 160\n\nPlease seed &amp; thank you for downloading, comments are appreciated.","torrent":{"xt":"urn:btih:a3a4cb744dfe44176ebc25c05bbe51db0c1db43c","amp;dn":"Arthur+%5B2011%5D+DVDRip","amp;tr":["udp%3A%2F%2Ftracker.openbittorrent.com%3A80","udp%3A%2F%2Fopen.demonii.com%3A1337","udp%3A%2F%2Ftracker.coppersurfer.tk%3A6969","udp%3A%2F%2Fexodus.desync.com%3A6969"],"infoHash":"a3a4cb744dfe44176ebc25c05bbe51db0c1db43c","infoHashBuffer":{"type":"Buffer","data":[163,164,203,116,77,254,68,23,110,188,37,192,91,190,81,219,12,29,180,60]},"announce":[],"urlList":[]}}